HIERARCHY
ROOT Root
{
  OFFSET 0.0 0.0 0.0
  CHANNELS 6 Xposition Yposition Zposition Zrotation Yrotation Xrotation
  JOINT Hips
  {
    OFFSET 0.0 100.0 0.0
    CHANNELS 6 Xposition Yposition Zposition Zrotation Yrotation Xrotation
    JOINT Spine1
    {
      OFFSET -0.013727 5.003763 -0.053727
      CHANNELS 3 Zrotation Yrotation Xrotation
      JOINT Spine2
      {
        OFFSET -0.0 7.125301 -0.029825
        CHANNELS 3 Zrotation Yrotation Xrotation
        JOINT Chest
        {
          OFFSET -1e-06 7.550063 -0.815971
          CHANNELS 3 Zrotation Yrotation Xrotation
          JOINT Neck1
          {
            OFFSET -0.181677 26.311295 -0.553348
            CHANNELS 3 Zrotation Yrotation Xrotation
            JOINT Neck2
            {
              OFFSET -3e-06 7.709397 2.302585
              CHANNELS 3 Zrotation Yrotation Xrotation
              JOINT Head
              {
                OFFSET -5e-06 6.128916 1.953709
                CHANNELS 3 Zrotation Yrotation Xrotation
                JOINT HeadEnd
                {
                  OFFSET 0.003598 16.065403 -1.835379
                  CHANNELS 3 Zrotation Yrotation Xrotation
                }
                JOINT Jaw
                {
                  OFFSET 0.002637 0.475592 3.094941
                  CHANNELS 3 Zrotation Yrotation Xrotation
                }
                JOINT LeftEye
                {
                  OFFSET 3.206381 5.380205 7.586883
                  CHANNELS 3 Zrotation Yrotation Xrotation
                }
                JOINT RightEye
                {
                  OFFSET -3.22244 5.361869 7.558234
                  CHANNELS 3 Zrotation Yrotation Xrotation
                }
              }
            }
          }
          JOINT LeftShoulder
          {
            OFFSET 1.621652 23.237164 5.113413
            CHANNELS 3 Zrotation Yrotation Xrotation
            JOINT LeftArm
            {
              OFFSET 14.919846 2e-06 -5.502326
              CHANNELS 3 Zrotation Yrotation Xrotation
              JOINT LeftForeArm
              {
                OFFSET 28.739307 0.0 -0.002588
                CHANNELS 3 Zrotation Yrotation Xrotation
                JOINT LeftHand
                {
                  OFFSET 27.093981 -1e-06 0.002609
                  CHANNELS 3 Zrotation Yrotation Xrotation
                  JOINT LeftHandThumb1
                  {
                    OFFSET 2.276482 -1.392045 3.191413
                    CHANNELS 3 Zrotation Yrotation Xrotation
                    JOINT LeftHandThumb2
                    {
                      OFFSET 4.012836 -1.828127 1.641654
                      CHANNELS 3 Zrotation Yrotation Xrotation
                      JOINT LeftHandThumb3
                      {
                        OFFSET 2.798515 0.0 -3e-06
                        CHANNELS 3 Zrotation Yrotation Xrotation
                        JOINT LeftHandThumbEnd
                        {
                          OFFSET 3.180793 -4e-06 4e-06
                          CHANNELS 3 Zrotation Yrotation Xrotation
                        }
                      }
                    }
                  }
                  JOINT LeftHandIndex1
                  {
                    OFFSET 3.247555 -0.531998 2.296169
                    CHANNELS 3 Zrotation Yrotation Xrotation
                    JOINT LeftHandIndex2
                    {
                      OFFSET 6.364578 0.01206 0.1786
                      CHANNELS 3 Zrotation Yrotation Xrotation
                      JOINT LeftHandIndex3
                      {
                        OFFSET 3.662364 0.0 0.0
                        CHANNELS 3 Zrotation Yrotation Xrotation
                        JOINT LeftHandIndex4
                        {
                          OFFSET 2.329242 4e-06 4e-06
                          CHANNELS 3 Zrotation Yrotation Xrotation
                          JOINT LeftHandIndexEnd
                          {
                            OFFSET 2.759615 -0.180537 -0.113024
                            CHANNELS 3 Zrotation Yrotation Xrotation
                          }
                        }
                      }
                    }
                  }
                  JOINT LeftHandMiddle1
                  {
                    OFFSET 3.163495 0.240981 1.000332
                    CHANNELS 3 Zrotation Yrotation Xrotation
                    JOINT LeftHandMiddle2
                    {
                      OFFSET 6.19078 -0.259278 -1.002548
                      CHANNELS 3 Zrotation Yrotation Xrotation
                      JOINT LeftHandMiddle3
                      {
                        OFFSET 4.35652 -4e-06 -1e-06
                        CHANNELS 3 Zrotation Yrotation Xrotation
                        JOINT LeftHandMiddle4
                        {
                          OFFSET 2.996877 -8e-06 0.0
                          CHANNELS 3 Zrotation Yrotation Xrotation
                          JOINT LeftHandMiddleEnd
                          {
                            OFFSET 2.304287 -0.294569 -0.031741
                            CHANNELS 3 Zrotation Yrotation Xrotation
                          }
                        }
                      }
                    }
                  }
                  JOINT LeftHandRing1
                  {
                    OFFSET 2.882643 -0.053652 -0.322543
                    CHANNELS 3 Zrotation Yrotation Xrotation
                    JOINT LeftHandRing2
                    {
                      OFFSET 5.854541 -0.486202 -1.373841
                      CHANNELS 3 Zrotation Yrotation Xrotation
                      JOINT LeftHandRing3
                      {
                        OFFSET 4.350578 0.0 3e-06
                        CHANNELS 3 Zrotation Yrotation Xrotation
                        JOINT LeftHandRing4
                        {
                          OFFSET 2.651321 7e-06 2e-06
                          CHANNELS 3 Zrotation Yrotation Xrotation
                          JOINT LeftHandRingEnd
                          {
                            OFFSET 1.936105 0.077687 -7.1e-05
                            CHANNELS 3 Zrotation Yrotation Xrotation
                          }
                        }
                      }
                    }
                  }
                  JOINT LeftHandPinky1
                  {
                    OFFSET 2.8655 -0.310005 -1.600378
                    CHANNELS 3 Zrotation Yrotation Xrotation
                    JOINT LeftHandPinky2
                    {
                      OFFSET 5.087849 -1.331141 -1.77123
                      CHANNELS 3 Zrotation Yrotation Xrotation
                      JOINT LeftHandPinky3
                      {
                        OFFSET 3.070974 4e-06 0.0
                        CHANNELS 3 Zrotation Yrotation Xrotation
                        JOINT LeftHandPinky4
                        {
                          OFFSET 1.549672 0.0 1e-06
                          CHANNELS 3 Zrotation Yrotation Xrotation
                          JOINT LeftHandPinkyEnd
                          {
                            OFFSET 1.944893 -0.157802 0.057219
                            CHANNELS 3 Zrotation Yrotation Xrotation
                          }
                        }
                      }
                    }
                  }
                }
              }
            }
          }
          JOINT RightShoulder
          {
            OFFSET -1.380118 23.180309 5.214158
            CHANNELS 3 Zrotation Yrotation Xrotation
            JOINT RightArm
            {
              OFFSET -15.037196 1.2e-05 -5.545604
              CHANNELS 3 Zrotation Yrotation Xrotation
              JOINT RightForeArm
              {
                OFFSET -28.736639 2e-06 -0.002597
                CHANNELS 3 Zrotation Yrotation Xrotation
                JOINT RightHand
                {
                  OFFSET -27.133619 -0.0 0.002613
                  CHANNELS 3 Zrotation Yrotation Xrotation
                  JOINT RightHandThumb1
                  {
                    OFFSET -2.274032 -1.383988 3.163127
                    CHANNELS 3 Zrotation Yrotation Xrotation
                    JOINT RightHandThumb2
                    {
                      OFFSET -4.011429 -1.827466 1.640914
                      CHANNELS 3 Zrotation Yrotation Xrotation
                      JOINT RightHandThumb3
                      {
                        OFFSET -2.794935 -4e-06 -3e-06
                        CHANNELS 3 Zrotation Yrotation Xrotation
                        JOINT RightHandThumbEnd
                        {
                          OFFSET -3.183852 4e-06 1e-06
                          CHANNELS 3 Zrotation Yrotation Xrotation
                        }
                      }
                    }
                  }
                  JOINT RightHandIndex1
                  {
                    OFFSET -3.253266 -0.520057 2.282866
                    CHANNELS 3 Zrotation Yrotation Xrotation
                    JOINT RightHandIndex2
                    {
                      OFFSET -6.341917 0.012471 0.178266
                      CHANNELS 3 Zrotation Yrotation Xrotation
                      JOINT RightHandIndex3
                      {
                        OFFSET -3.654871 -8e-06 -0.0
                        CHANNELS 3 Zrotation Yrotation Xrotation
                        JOINT RightHandIndex4
                        {
                          OFFSET -2.327586 0.0 1e-06
                          CHANNELS 3 Zrotation Yrotation Xrotation
                          JOINT RightHandIndexEnd
                          {
                            OFFSET -2.76179 -0.180656 -0.113078
                            CHANNELS 3 Zrotation Yrotation Xrotation
                          }
                        }
                      }
                    }
                  }
                  JOINT RightHandMiddle1
                  {
                    OFFSET -3.168106 0.246593 1.00103
                    CHANNELS 3 Zrotation Yrotation Xrotation
                    JOINT RightHandMiddle2
                    {
                      OFFSET -6.180828 -0.258836 -1.000895
                      CHANNELS 3 Zrotation Yrotation Xrotation
                      JOINT RightHandMiddle3
                      {
                        OFFSET -4.348901 0.0 -0.0
                        CHANNELS 3 Zrotation Yrotation Xrotation
                        JOINT RightHandMiddle4
                        {
                          OFFSET -3.00024 -4e-06 -2e-06
                          CHANNELS 3 Zrotation Yrotation Xrotation
                          JOINT RightHandMiddleEnd
                          {
                            OFFSET -2.30252 -0.29437 -0.031706
                            CHANNELS 3 Zrotation Yrotation Xrotation
                          }
                        }
                      }
                    }
                  }
                  JOINT RightHandRing1
                  {
                    OFFSET -2.88569 -0.067952 -0.308858
                    CHANNELS 3 Zrotation Yrotation Xrotation
                    JOINT RightHandRing2
                    {
                      OFFSET -5.854198 -0.48613 -1.373731
                      CHANNELS 3 Zrotation Yrotation Xrotation
                      JOINT RightHandRing3
                      {
                        OFFSET -4.33881 -4e-06 -0.0
                        CHANNELS 3 Zrotation Yrotation Xrotation
                        JOINT RightHandRing4
                        {
                          OFFSET -2.654903 -4e-06 4e-06
                          CHANNELS 3 Zrotation Yrotation Xrotation
                          JOINT RightHandRingEnd
                          {
                            OFFSET -1.933568 0.077527 -5.2e-05
                            CHANNELS 3 Zrotation Yrotation Xrotation
                          }
                        }
                      }
                    }
                  }
                  JOINT RightHandPinky1
                  {
                    OFFSET -2.866425 -0.342796 -1.584145
                    CHANNELS 3 Zrotation Yrotation Xrotation
                    JOINT RightHandPinky2
                    {
                      OFFSET -5.091371 -1.332055 -1.772385
                      CHANNELS 3 Zrotation Yrotation Xrotation
                      JOINT RightHandPinky3
                      {
                        OFFSET -3.062664 -4e-06 1e-06
                        CHANNELS 3 Zrotation Yrotation Xrotation
                        JOINT RightHandPinky4
                        {
                          OFFSET -1.546529 4e-06 -2e-06
                          CHANNELS 3 Zrotation Yrotation Xrotation
                          JOINT RightHandPinkyEnd
                          {
                            OFFSET -1.945119 -0.157718 0.057211
                            CHANNELS 3 Zrotation Yrotation Xrotation
                          }
                        }
                      }
                    }
                  }
                }
              }
            }
          }
        }
      }
    }
    JOINT LeftLeg
    {
      OFFSET 10.043214 -8.434526 2.595655
      CHANNELS 3 Zrotation Yrotation Xrotation
      JOINT LeftShin
      {
        OFFSET -1e-06 -43.221752 -0.802913
        CHANNELS 3 Zrotation Yrotation Xrotation
        JOINT LeftFoot
        {
          OFFSET 1e-06 -42.155094 -3.481523
          CHANNELS 3 Zrotation Yrotation Xrotation
          JOINT LeftToeBase
          {
            OFFSET 0.0 -5.059472 13.231529
            CHANNELS 3 Zrotation Yrotation Xrotation
            JOINT LeftToeEnd
            {
              OFFSET -0.009607 -1.647619 6.513017
              CHANNELS 3 Zrotation Yrotation Xrotation
            }
          }
        }
      }
    }
    JOINT RightLeg
    {
      OFFSET -10.047278 -8.29526 2.620317
      CHANNELS 3 Zrotation Yrotation Xrotation
      JOINT RightShin
      {
        OFFSET 1e-06 -43.362206 -0.805556
        CHANNELS 3 Zrotation Yrotation Xrotation
        JOINT RightFoot
        {
          OFFSET 2e-06 -42.117393 -3.478398
          CHANNELS 3 Zrotation Yrotation Xrotation
          JOINT RightToeBase
          {
            OFFSET -0.0 -5.079609 13.284196
            CHANNELS 3 Zrotation Yrotation Xrotation
            JOINT RightToeEnd
            {
              OFFSET 0.009532 -1.634378 6.460591
              CHANNELS 3 Zrotation Yrotation Xrotation
            }
          }
        }
      }
    }
  }
}
MOTION
Frames: 5
Frame Time: 0.03333333333333333
0.0 0.0 0.0 0.0 -0.0 0.0 2.330845 94.110641 0.748792 1.606658 0.038392 3.149829 0.8165 -0.012654 -2.417178 -0.419663 0.397964 -5.605254 0.082706 -2.108999 9.426741 0.256008 2.498544 -2.059985 -0.211399 2.10928 -3.74401 -0.2556 1.643541 -10.530521 7.7e-05 -2.2e-05 6e-06 0.009561 -0.05455 -0.028622 0.661353 -3.803379 -10.586211 -0.649759 3.706047 -10.598647 -17.825621 -5.82693 15.416649 -66.966927 -1.282103 5.598699 0.640722 -12.241839 0.080714 -6.284584 3.608718 1.120495 -5.88211 9.861292 0.702591 -10.936877 -0.360575 7.156208 0.0 8.77483 -2e-06 -16.661333 18.464609 6.066909 -1.844034 2.498506 -2.507278 -10.163605 4.678948 4.621109 -20.976038 -3e-06 3e-06 -21.226301 2.451699 -3.594003 -0.0 -6e-06 -0.0 -1.362682 2.2408 -0.746323 -21.334925 0.584911 3.008325 -13.821221 -1e-06 2e-06 -23.88718 -0.249076 -0.839484 -60.806236 2.341359 -0.983833 -0.294025 1.679688 0.833256 -14.218215 0.093215 1.30058 -34.212067 -0.287563 0.96717 -20.033222 0.964537 1.212844 -1e-06 0.0 -0.0 -3.44039 0.788234 0.501656 -15.928194 -3.167312 2.999709 -6.33883 -1e-06 2e-06 -18.123457 3.648185 -4.905673 -5e-06 1e-06 -2e-06 15.190727 10.341931 15.508704 62.118256 5.697239 9.190204 -1.029997 19.578897 -0.261543 6.32858 -1.537624 -12.16452 2.243542 -5.255039 -3.180158 14.282894 -0.826595 6.952504 -1e-06 -12.69061 1e-06 16.131857 -18.047123 2.526962 1.665666 -1.955922 -2.878299 4.7278 -4.170589 4.993925 11.020528 3e-06 -1e-06 12.109056 -3.735717 -2.866786 1e-06 0.0 0.0 1.291986 -1.92855 -1.49809 14.800129 0.567468 3.865611 14.242576 -1.341738 -6.660659 19.631969 0.143925 -0.648245 50.42371 -0.275672 -6.355751 0.353029 -1.511151 -0.031939 20.222795 3.68431 2.316632 18.787279 3e-06 -1e-06 10.751631 -0.479869 1.397907 -1e-06 0.0 -0.0 3.273807 0.305947 -0.580111 21.486816 11.830379 2.266136 8.162929 2e-06 -0.0 18.399086 -3.798986 -4.940577 5e-06 -0.0 -2e-06 -8.677197 4.021633 -30.77574 0.040931 0.402759 3.563377 0.847145 2.543468 18.149466 1.74126 -1.932272 -6.874012 0.0 0.0 2e-06 -0.688764 -2.403586 17.33675 -0.173897 0.18638 14.883647 -3.503005 2.944079 -7.698032 -1.488937 0.868356 -18.807434 -0.0 -0.0 -1e-06 
0.0 0.0 0.0 0.0 -0.0 0.0 2.921273 94.644989 5.454505 3.170194 0.182942 3.044441 -0.118194 -0.102804 -2.542629 -0.601453 0.556988 -5.733319 -0.666481 -1.887427 9.184669 0.831815 2.446006 -2.180578 -0.433289 1.627042 -3.686885 -0.017067 1.600502 -10.339886 7.7e-05 -2.2e-05 6e-06 0.010606 -0.037415 -0.020734 0.676122 -3.77284 -10.528607 -0.661951 3.707304 -10.523657 -17.59059 -5.88566 15.423626 -66.21637 -1.520846 6.219723 0.470905 -12.834693 0.059291 -6.26036 3.400628 0.048082 -5.882107 9.861287 0.702589 -10.936873 -0.360575 7.156207 0.0 8.774825 -2e-06 -16.749855 18.664021 6.139281 -1.844033 2.498505 -2.507278 -10.163602 4.678946 4.621109 -20.976027 -2e-06 2e-06 -21.226288 2.451699 -3.594002 0.0 -8e-06 0.0 -1.362682 2.240798 -0.746323 -21.334915 0.584911 3.008322 -13.821214 -1e-06 0.0 -23.887171 -0.249077 -0.839485 -60.945492 2.405118 -0.961371 -0.294025 1.679687 0.833256 -14.218212 0.093215 1.30058 -34.212051 -0.287563 0.967169 -20.033215 0.964537 1.212842 -1e-06 1e-06 0.0 -3.440389 0.788233 0.501656 -15.928185 -3.16731 2.999706 -6.338827 -1e-06 2e-06 -18.123449 3.648184 -4.905671 -5e-06 1e-06 -2e-06 15.35857 10.125007 15.35587 62.821213 5.213892 10.514915 -0.367845 17.54623 -0.014829 7.412879 -3.117136 -9.589261 2.243543 -5.255038 -3.180159 14.2829 -0.826595 6.952506 -2e-06 -12.69061 1e-06 15.989839 -18.044559 2.494195 1.665667 -1.955922 -2.878299 4.727802 -4.170589 4.993927 11.020535 4e-06 -2e-06 12.10906 -3.735717 -2.866784 -1e-06 -1e-06 -0.0 1.291986 -1.92855 -1.498089 14.800138 0.567468 3.865611 14.242579 -1.341736 -6.66066 19.631979 0.143926 -0.648245 50.170242 -0.263663 -6.513189 0.353029 -1.511151 -0.031939 20.222803 3.684311 2.316631 18.787289 5e-06 -2e-06 10.751637 -0.479869 1.397906 -1e-06 -1e-06 1e-06 3.273809 0.305947 -0.580112 21.486828 11.830379 2.266132 8.16293 1e-06 -1e-06 18.399096 -3.798985 -4.940577 4e-06 0.0 -1e-06 -10.063129 2.35137 -30.341726 0.027891 0.281584 8.503298 3.076363 2.11165 17.142668 1.703454 -1.998947 -5.119878 0.0 -0.0 2e-06 -3.771205 -4.833526 14.721864 -0.134173 0.374566 24.309444 -3.73431 4.129687 -0.709372 -1.534276 0.757839 -27.825563 0.0 -0.0 -1e-06 
0.0 0.0 0.0 0.0 -0.0 0.0 3.451408 95.301727 10.248056 4.956483 0.251303 2.443913 -1.024984 -0.175782 -2.299909 -0.836448 0.722179 -5.625807 -1.777488 -1.741868 9.008922 1.541083 2.36663 -1.89407 -0.686146 1.399663 -3.628242 0.063041 1.622808 -10.469409 7.7e-05 -2.2e-05 6e-06 0.01822 -0.031665 -0.001294 0.70048 -3.762295 -10.515547 -0.67314 3.701868 -10.498723 -16.62941 -6.180974 15.368617 -65.808167 -2.347769 7.127548 0.303288 -13.422255 0.003169 -6.04845 3.22629 -0.325179 -5.88211 9.861295 0.702589 -10.936877 -0.360575 7.156209 -1e-06 8.774831 -4e-06 -16.892317 18.615253 5.856917 -1.844033 2.498507 -2.507278 -10.163604 4.678949 4.621109 -20.976034 -1e-06 2e-06 -21.226297 2.451704 -3.594004 -1e-06 -7e-06 0.0 -1.362682 2.2408 -0.746323 -21.334925 0.584911 3.008324 -13.82122 -0.0 1e-06 -23.887178 -0.249075 -0.839485 -60.85817 2.537394 -1.417506 -0.294025 1.679688 0.833256 -14.218215 0.093216 1.300582 -34.212074 -0.287561 0.96717 -20.033226 0.96454 1.212843 -1e-06 0.0 0.0 -3.44039 0.788235 0.501656 -15.928192 -3.16731 2.999707 -6.338829 -0.0 2e-06 -18.123455 3.648189 -4.905674 -5e-06 -0.0 -2e-06 14.997735 10.215167 15.430314 64.146828 5.301008 11.727108 -0.106912 16.810108 0.068572 8.632247 -4.663581 -7.131003 2.243545 -5.255044 -3.180159 14.282911 -0.826596 6.952507 1e-06 -12.690619 -2e-06 16.184765 -18.286926 2.45355 1.665668 -1.955924 -2.8783 4.727805 -4.170592 4.993927 11.02054 2e-06 -1e-06 12.109068 -3.735721 -2.866787 1e-06 -0.0 0.0 1.291987 -1.928552 -1.49809 14.800146 0.567468 3.86561 14.242593 -1.34174 -6.660663 19.63199 0.143923 -0.648246 50.025356 -0.261461 -6.742911 0.35303 -1.511152 -0.03194 20.222818 3.684313 2.316633 18.787302 4e-06 -1e-06 10.751643 -0.479868 1.397907 -2e-06 0.0 -0.0 3.273811 0.305947 -0.580112 21.486841 11.830388 2.266138 8.16294 2e-06 -2e-06 18.399107 -3.79899 -4.940581 4e-06 1e-06 -1e-06 -11.897315 1.705105 -28.658493 0.072558 0.373339 13.05332 4.746553 1.935999 13.294644 1.644363 -2.107319 -2.848985 0.0 -0.0 2e-06 -7.250591 -6.853909 10.634531 0.046482 0.382213 35.714012 -3.209169 4.362473 8.803928 -1.520753 0.638336 -30.592192 -0.0 -0.0 -1e-06 
0.0 0.0 0.0 0.0 -0.0 0.0 3.915667 96.061928 14.802597 6.091469 0.002352 1.784 -1.562033 -0.294089 -1.9439 -0.991723 0.804242 -5.485079 -2.467331 -1.659507 8.989383 1.671558 2.324672 -1.540062 -0.660826 1.480246 -3.611632 -0.006369 1.734184 -10.659601 7.7e-05 -2.3e-05 6e-06 0.021208 -0.01085 0.010804 0.707385 -3.735944 -10.500008 -0.675277 3.71424 -10.486806 -16.06893 -6.488914 15.475449 -65.020195 -3.817539 7.787298 0.039415 -14.304599 0.009609 -5.83175 3.030478 -0.636127 -5.882108 9.861287 0.702592 -10.936877 -0.360577 7.156209 3e-06 8.774828 -1e-06 -17.027447 18.573757 5.626923 -1.844033 2.498505 -2.507277 -10.163606 4.678945 4.62111 -20.976034 -4e-06 3e-06 -21.226297 2.451697 -3.594 -1e-06 -6e-06 -0.0 -1.362682 2.240798 -0.746324 -21.334925 0.584909 3.008327 -13.821222 -4e-06 2e-06 -23.887182 -0.24908 -0.839482 -60.78511 2.525292 -1.696157 -0.294025 1.679687 0.833255 -14.218215 0.093214 1.30058 -34.212067 -0.287565 0.967173 -20.033226 0.964537 1.212846 -0.0 0.0 0.0 -3.44039 0.788233 0.501655 -15.928192 -3.167311 2.999709 -6.338829 -1e-06 2e-06 -18.123453 3.648181 -4.90567 -5e-06 0.0 -1e-06 14.54118 10.230704 15.453025 64.897873 5.649289 12.473041 0.195587 17.832024 0.180015 9.062292 -5.211227 -6.226081 2.243541 -5.255038 -3.180157 14.282891 -0.826594 6.952502 -2e-06 -12.690607 1e-06 16.397032 -18.341606 2.366466 1.665666 -1.955922 -2.878297 4.727799 -4.170588 4.993922 11.020528 3e-06 -2e-06 12.109055 -3.735718 -2.866783 1e-06 -1e-06 0.0 1.291986 -1.92855 -1.498089 14.800129 0.567469 3.865609 14.242576 -1.341737 -6.660658 19.631969 0.143926 -0.648244 49.918053 -0.267501 -6.847169 0.353029 -1.511151 -0.03194 20.22279 3.68431 2.31663 18.787271 4e-06 -1e-06 10.751631 -0.479868 1.397906 0.0 1e-06 -0.0 3.273807 0.305947 -0.58011 21.486813 11.830377 2.266133 8.162926 1e-06 -0.0 18.39908 -3.798986 -4.940578 4e-06 -0.0 -0.0 -13.123898 1.733006 -25.455231 0.09104 0.387016 14.425539 5.544894 2.244653 9.080249 1.635163 -2.153107 -2.229677 0.0 0.0 2e-06 -9.393936 -7.626192 5.36547 0.124479 0.367214 46.620934 -2.525745 1.994267 17.835688 -1.337699 0.673087 -20.379625 -0.0 0.0 -0.0 
0.0 0.0 0.0 0.0 -0.0 0.0 4.296275 96.809074 19.105776 6.621561 -0.386121 1.170639 -1.887243 -0.382196 -1.630784 -1.066126 0.758398 -5.376257 -2.774452 -1.809736 9.14831 1.518778 2.392508 -0.970001 -0.452502 1.789368 -3.61756 -0.079569 1.915801 -10.814637 7.7e-05 -2.2e-05 6e-06 0.028559 0.032501 0.036935 0.717511 -3.687895 -10.489072 -0.671307 3.752682 -10.484539 -15.928365 -6.705495 15.422376 -63.670479 -5.609392 8.447104 -0.182545 -15.340552 0.016574 -5.28608 2.646277 -0.851613 -5.882108 9.861288 0.702592 -10.936874 -0.360574 7.156209 1e-06 8.774828 1e-06 -17.101013 18.471193 5.486134 -1.844033 2.498505 -2.50728 -10.163604 4.678948 4.621112 -20.97603 -4e-06 2e-06 -21.226295 2.451696 -3.594 0.0 -7e-06 -1e-06 -1.362682 2.240799 -0.746324 -21.334925 0.584911 3.008326 -13.821221 -2e-06 1e-06 -23.887178 -0.249078 -0.839483 -60.703785 2.503762 -1.729125 -0.294025 1.679688 0.833256 -14.218214 0.093215 1.300581 -34.212059 -0.287564 0.967171 -20.033218 0.964538 1.212845 -1e-06 0.0 -0.0 -3.44039 0.788234 0.501656 -15.928192 -3.16731 2.999709 -6.33883 -1e-06 1e-06 -18.123455 3.648183 -4.905672 -4e-06 1e-06 -1e-06 14.469823 10.162107 15.469533 64.77047 6.214881 13.173407 0.351877 20.059448 0.286544 8.677373 -4.679181 -6.526226 2.243542 -5.255037 -3.180158 14.282893 -0.826596 6.952504 -2e-06 -12.690606 3e-06 16.608253 -18.282406 2.296863 1.665666 -1.955921 -2.878299 4.7278 -4.170588 4.993927 11.020528 3e-06 -3e-06 12.109055 -3.735716 -2.866783 1e-06 -0.0 -1e-06 1.291986 -1.92855 -1.498089 14.800129 0.567468 3.865609 14.242572 -1.341735 -6.660661 19.631969 0.143926 -0.648245 49.856323 -0.310166 -6.825583 0.353029 -1.51115 -0.03194 20.222795 3.68431 2.316629 18.787273 4e-06 -2e-06 10.751631 -0.479869 1.397905 -1e-06 0.0 0.0 3.273807 0.305947 -0.580111 21.486816 11.830376 2.266132 8.162929 1e-06 1e-06 18.399084 -3.798987 -4.940575 4e-06 0.0 -2e-06 -13.708132 2.01304 -21.759832 0.117162 0.414717 14.25512 6.061639 2.675011 5.821404 1.644963 -2.135556 -1.854134 0.0 -0.0 2e-06 -10.164021 -7.4552 -0.246914 0.119865 0.178194 55.83223 -3.824908 -1.545125 21.550116 -1.305091 0.825579 -9.103689 -0.0 -0.0 -1e-06 
